<svg data-v-fde0c5aa="" xmlns="http://www.w3.org/2000/svg" viewBox="0 0 300 300" class="iconAbove"><!----><defs data-v-fde0c5aa=""><!----></defs><rect data-v-fde0c5aa="" fill="transparent" x="0" y="0" width="300px" height="300px" class="logo-background-square"></rect><defs data-v-fde0c5aa=""><!----></defs><g data-v-fde0c5aa="" id="17ebec1e-5924-4414-985d-aaeae4b0f4ba" fill="#000000" transform="matrix(4.886299651823735,0,0,4.886299651823735,12.670550522264397,178.10543089304062)"><path d="M10.98 7.68L10.98 7.68L10.98 7.68Q10.98 8.39 10.68 8.97L10.68 8.97L10.68 8.97Q10.38 9.54 9.79 9.96L9.79 9.96L9.79 9.96Q9.20 10.37 8.31 10.60L8.31 10.60L8.31 10.60Q7.42 10.82 6.24 10.82L6.24 10.82L6.24 10.82Q5.06 10.82 4.17 10.60L4.17 10.60L4.17 10.60Q3.28 10.37 2.69 9.96L2.69 9.96L2.69 9.96Q2.09 9.54 1.79 8.97L1.79 8.97L1.79 8.97Q1.50 8.39 1.50 7.68L1.50 7.68L1.50 1.24L2.35 1.24L2.35 7.75L2.35 7.75Q2.35 8.22 2.60 8.64L2.60 8.64L2.60 8.64Q2.85 9.06 3.34 9.38L3.34 9.38L3.34 9.38Q3.83 9.69 4.56 9.88L4.56 9.88L4.56 9.88Q5.28 10.06 6.24 10.06L6.24 10.06L6.24 10.06Q7.19 10.06 7.92 9.88L7.92 9.88L7.92 9.88Q8.64 9.69 9.13 9.38L9.13 9.38L9.13 9.38Q9.63 9.06 9.87 8.64L9.87 8.64L9.87 8.64Q10.12 8.22 10.12 7.75L10.12 7.75L10.12 1.24L10.98 1.24L10.98 7.68ZM14.91 1.24L14.91 7.39L14.91 7.39Q14.91 8.03 15.01 8.48L15.01 8.48L15.01 8.48Q15.11 8.94 15.44 9.24L15.44 9.24L15.44 9.24Q15.77 9.53 16.39 9.67L16.39 9.67L16.39 9.67Q17.01 9.81 18.03 9.81L18.03 9.81L22.28 9.81L22.28 10.64L17.86 10.64L17.86 10.64Q16.73 10.64 16.00 10.46L16.00 10.46L16.00 10.46Q15.26 10.27 14.83 9.90L14.83 9.90L14.83 9.90Q14.40 9.52 14.23 8.93L14.23 8.93L14.23 8.93Q14.05 8.35 14.05 7.55L14.05 7.55L14.05 1.24L14.91 1.24ZM24.85 1.24L24.85 7.39L24.85 7.39Q24.85 8.03 24.95 8.48L24.95 8.48L24.95 8.48Q25.05 8.94 25.38 9.24L25.38 9.24L25.38 9.24Q25.71 9.53 26.33 9.67L26.33 9.67L26.33 9.67Q26.95 9.81 27.97 9.81L27.97 9.81L32.22 9.81L32.22 10.64L27.80 10.64L27.80 10.64Q26.67 10.64 25.94 10.46L25.94 10.46L25.94 10.46Q25.20 10.27 24.77 9.90L24.77 9.90L24.77 9.90Q24.34 9.52 24.17 8.93L24.17 8.93L24.17 8.93Q23.99 8.35 23.99 7.55L23.99 7.55L23.99 1.24L24.85 1.24ZM40.89 1.97L40.89 1.97L40.89 1.97Q40.69 1.91 40.34 1.84L40.34 1.84L40.34 1.84Q39.99 1.76 39.44 1.76L39.44 1.76L39.44 1.76Q38.67 1.76 38.00 1.95L38.00 1.95L38.00 1.95Q37.32 2.14 36.75 2.46L36.75 2.46L36.75 2.46Q36.17 2.78 35.68 3.21L35.68 3.21L35.68 3.21Q35.18 3.64 34.79 4.12L34.79 4.12L34.79 10.64L33.93 10.64L33.93 1.24L34.79 1.24L34.79 3.16L34.79 3.16Q35.25 2.69 35.78 2.29L35.78 2.29L35.78 2.29Q36.32 1.89 36.91 1.61L36.91 1.61L36.91 1.61Q37.51 1.33 38.16 1.17L38.16 1.17L38.16 1.17Q38.81 1.00 39.51 1.00L39.51 1.00L39.51 1.00Q39.75 1.00 39.94 1.02L39.94 1.02L39.94 1.02Q40.13 1.03 40.29 1.04L40.29 1.04L40.29 1.04Q40.46 1.06 40.60 1.08L40.60 1.08L40.60 1.08Q40.74 1.10 40.89 1.13L40.89 1.13L40.89 1.97ZM52.01 10.64L51.07 10.64L49.78 8.16L43.40 8.16L42.11 10.64L41.17 10.64L46.09 1.24L47.09 1.24L52.01 10.64ZM49.36 7.38L46.59 2.07L43.82 7.38L49.36 7.38ZM54.71 10.64L53.85 10.64L53.85 1.24L54.71 1.24L54.71 10.64Z"></path></g><defs data-v-fde0c5aa=""><linearGradient data-v-fde0c5aa="" gradientTransform="rotate(25)" id="ecb9ffe4-d13a-459b-a72b-2f1b4233fb11" x1="0%" y1="0%" x2="100%" y2="0%"><stop data-v-fde0c5aa="" offset="0%" stop-color="#0015D6" stop-opacity="1"></stop><stop data-v-fde0c5aa="" offset="100%" stop-color="#0989FB" stop-opacity="1"></stop></linearGradient></defs><g data-v-fde0c5aa="" id="77935a80-7be5-45a6-98f2-ecef4d816bff" stroke="none" fill="url(#ecb9ffe4-d13a-459b-a72b-2f1b4233fb11)" transform="matrix(1.142572323467209,0,0,1.142572323467209,92.8757990555354,59.875074606597394)"><path d="M91.121 8.879c-.718-.719-1.837-.995-2.71-.82l-15 3a2.998 2.998 0 0 0-1.532 5.063L75.758 20l-9.767 9.767C43.825 10.105 23.736 18.131 13.074 8.832a3.003 3.003 0 0 0-4.206 4.27l.059.066c2.915 3.24 5.586 4.771 8.801 6.168L31.6 64.158 27.758 68H20a3 3 0 1 0 0 6h1.758l-3 3H11a3 3 0 1 0 0 6h6v6a3 3 0 1 0 6 0v-7.758l3-3V80a3 3 0 1 0 6 0v-7.758l3.842-3.842 44.822 13.872c1.387 3.187 2.942 5.931 6.215 8.849a3.005 3.005 0 0 0 4.281-4.198l-.038-.045c-9.312-10.87-1.252-30.732-20.888-52.87L80 24.242l3.879 3.879a2.997 2.997 0 0 0 5.062-1.532l3-15c.176-.88-.102-1.992-.82-2.71zM24.649 21.41c12.936 2.119 25.126 6.047 34.954 14.744L36.396 59.361 24.649 21.41zM78.59 75.351L40.638 63.604l23.208-23.208c8.72 9.854 12.619 22.027 14.744 34.955z"></path></g><!----></svg>